<?xml version="1.0" encoding="utf-8"?>
<!-- www.vectorico.com -->
<svg version="1.1" id="Facebook" xmlns="http://www.w3.org/2000/svg" xmlns:xlink="http://www.w3.org/1999/xlink" x="0px" y="0px"
	 viewBox="0 0 170 64" style="enable-background:new 0 0 170 64;" xml:space="preserve">
<style type="text/css">
	.st0{fill:#3B5998;}
	.st1{fill:#FFFFFF;}
</style>
<title>facebook new logo</title>
<path class="st0" d="M0,0h170v64H0V0z"/>
<path class="st1" d="M92,27.4c-2.1-0.2-3.9,0.4-5.5,2.3V18.3L80.9,19v26.3h5.6v-1.6c0.8,0.5,1.5,1.2,2.3,1.5c3.2,1.2,7.5,0.2,9-4.1
	c1-2.8,0.9-5.6,0.2-8.5C97.3,29.5,95.2,27.8,92,27.4z M92.8,38.8c-0.2,1.7-1.6,2.6-3.3,2.5c-0.4,0-0.8-0.1-1.1-0.2
	c-1.3-0.8-1.7-2-1.8-2.8l0,0c-0.1-1.2-0.2-3.8,0.4-5c0.5-0.9,1.4-1.4,2.6-1.5c1.7-0.1,2.9,0.8,3.2,2.5C93,35.7,93,37.3,92.8,38.8
	L92.8,38.8z M111.7,27.7c-1.9-0.5-3.9-0.5-5.8,0c-2.9,0.8-4.8,2.6-5.5,5.5c-0.3,1.6-0.4,3.3-0.3,4.9c0.2,3.7,2.5,6.4,6.1,7.2l0.2,0
	h0l0.4,0.1h0.1c0.2,0,0.4,0.1,0.6,0.1c0.7,0.1,1.6,0.1,2.3,0h0.1c3.7-0.2,6.5-2.5,7.3-6.1c0.4-1.9,0.5-3.9,0-5.9
	C116.6,30.5,114.7,28.5,111.7,27.7L111.7,27.7z M111.9,38.5c0,0.1,0,0.2-0.1,0.3c-0.4,1.6-1.6,2.5-3.1,2.5s-2.9-1.1-3-2.8
	c-0.1-1.3-0.1-2.5,0-3.8c0.2-2,1.4-3.1,3.2-3c1.5,0,2.6,0.9,3,2.4C112.2,35.5,111.9,38.2,111.9,38.5L111.9,38.5z M28.2,27.6h-4V25
	c0.3-2.5,4.4-2,4.4-2v-4.3l0,0c-0.1,0-8.2-2-9.8,4.2l0,0v0c-0.2,0.8-0.2,4.3-0.2,4.7h-3.5v4.7h3.7v12.8h5.3V32.4h4.1l0.5-4.7H28.2z
	 M40.9,29.9l-0.2-0.2l0,0l-0.1-0.1c-1.3-1.3-1.7-1.6-2.7-1.9c-3.8-1.1-7.4,0.9-8.6,4.7c-0.7,2.3-0.7,4.7-0.3,7.1
	c0.9,5.1,4.7,6.8,8.8,6c1.2-0.3,2.2-1,3-2.1c0.1-0.1,0.1-0.2,0.2-0.3v2.3H46V27.7h-5.2V29.9L40.9,29.9z M40.4,38.8
	c-0.2,1.6-1.5,2.6-3,2.5c-1.6-0.1-2.7-0.9-3-2.5c-0.4-2.2,0.1-4.8,0.1-5c0.4-1.5,1.5-2.2,3-2.1c1.6,0,2.7,0.9,2.9,2.5
	C40.5,35.8,40.5,37.3,40.4,38.8z M61.9,44c-0.2-0.9-0.5-1.8-0.8-2.6l-0.2-0.9c0,0-6.5,3.1-7.5-2.8c-0.1-1-0.1-2,0.1-3
	c0.3-1.8,1.4-2.8,3.1-3c0.6-0.1,1.2,0,1.8,0.1c0.8,0.1,1.6,0.4,2.5,0.6c0.3-0.9,0.6-1.9,0.9-2.8c0-0.2,0.1-0.3,0.1-0.4l0.2-0.6
	c-0.1-0.1-0.1-0.2-0.2-0.2c-0.2-0.1-0.4-0.2-0.8-0.4l-0.5-0.2l-0.2-0.1l0,0c-1.7-0.5-3.5-0.5-5.2-0.3c-3.8,0.4-6.3,2.6-7,6.3
	c-0.4,1.9-0.4,3.9,0.1,5.8c0.6,2.9,2.4,4.8,5.2,5.6c1.9,0.5,3.8,0.6,5.7,0.3c0.8-0.1,1.9-0.5,2.8-0.8l0.3-0.1L61.9,44L61.9,44
	L61.9,44z M79,37.1c0-1.2,0-2.4-0.2-3.6c-0.5-3.3-2.5-5.4-5.7-5.9c-1.2-0.2-2.5-0.2-3.8-0.1c-3.4,0.3-6,2.5-6.6,5.7
	c-0.3,2-0.4,4-0.1,6c0.4,2.9,1.8,4.8,4.3,5.7h0c1.1,0.3,6.7,1.8,11.6-0.7l-0.2-0.7h0c-0.2-1-0.5-1.9-0.8-2.9l0-0.1l-0.3,0.1h0
	c-0.2,0.1-0.4,0.1-0.6,0.2l-0.1,0c-1,0.3-1.9,0.5-2.9,0.6c-0.9,0.1-1.9,0.1-2.8,0c-1.6-0.3-2.7-1.1-2.7-3.1h10.3l0.7,0L79,37.1
	L79,37.1z M74,34.7h-6c0-1.2,0.2-2.3,1.2-3c1.1-0.7,2.4-0.7,3.5-0.1C74,32.3,74.1,33.5,74,34.7L74,34.7z M154.9,27.8H149l-5.1,8
	V18.4l-5.6,0.7v26.3h5.6v-8l5.1,8.1h5.9l-5.6-8.7 M130.6,27.7c-1.9-0.5-3.9-0.5-5.8,0c-2.9,0.8-4.8,2.6-5.4,5.5
	c-0.3,1.6-0.4,3.3-0.3,4.9c0.2,3.7,2.5,6.4,6.1,7.2l0.2,0h0l0.4,0.1h0.1c0.2,0,0.4,0.1,0.6,0.1c0.7,0.1,1.6,0.1,2.3,0h0.1
	c3.7-0.2,6.5-2.5,7.3-6.1c0.4-1.9,0.5-3.9,0-5.9C135.6,30.5,133.7,28.6,130.6,27.7L130.6,27.7z M130.9,38.5c0,0.1,0,0.2-0.1,0.3
	c-0.4,1.6-1.6,2.5-3.1,2.5c-1.6-0.1-2.9-1.1-3-2.8c-0.1-1.3-0.1-2.5,0-3.8c0.2-2,1.4-3.1,3.2-3c1.5,0,2.6,0.9,3,2.4
	C131.2,35.6,130.9,38.2,130.9,38.5L130.9,38.5z"/>
</svg>
